<?xml version="1.0" encoding="utf-8"?>
<!-- Generator: Adobe Illustrator 24.0.2, SVG Export Plug-In . SVG Version: 6.00 Build 0)  -->
<svg version="1.1" id="Layer_1" xmlns="http://www.w3.org/2000/svg" xmlns:xlink="http://www.w3.org/1999/xlink" x="0px" y="0px"
	 viewBox="0 0 512 512" style="enable-background:new 0 0 512 512;" xml:space="preserve">
<style type="text/css">
	.st0{fill:#FFFFFF;}
</style>
<g id="Solution_1_">
	<path class="st0" d="M121.4,183.3c-5-19.4,6.6-39.1,26-44.1c19.4-5,39.1,6.6,44.1,26c1.5,5.9,1.5,12.2,0,18.1H247V113
		c0-5,4.1-9.1,9.1-9c2.2,0,4.4,0.8,6.1,2.3c3.3,3,7.6,4.6,12,4.6c10,0,18.1-8.1,18.1-18.1s-8.1-18.1-18.1-18.1
		c-4.4,0-8.7,1.6-12,4.6c-3.7,3.4-9.4,3.1-12.8-0.6c-1.5-1.7-2.3-3.8-2.3-6.1V2.6C150.6,7.3,75,86.9,75,183.3H121.4z"/>
	<path class="st0" d="M174.6,409.6h162.9c5,0,9.1,4.1,9.1,9.1v36.2c0,5-4.1,9.1-9.1,9.1H174.6c-5,0-9.1-4.1-9.1-9.1v-36.2
		C165.5,413.7,169.6,409.6,174.6,409.6z"/>
	<path class="st0" d="M301.3,482.1h-90.5v18.1c0,5,4.1,9.1,9.1,9.1h72.4c5,0,9.1-4.1,9.1-9.1V482.1z"/>
	<path class="st0" d="M161.8,338c18.9,11.3,30.6,31.6,30.9,53.6H247V327c-19.4,5-39.1-6.6-44.1-26c-5-19.4,6.6-39.1,26-44.1
		c5.9-1.5,12.2-1.5,18.1,0v-55.5h-70.3c-5,0-9.1-4.1-9-9.1c0-2.2,0.8-4.4,2.3-6.1c3-3.3,4.6-7.6,4.6-12c0-10-8.1-18.1-18.1-18.1
		c-10,0-18.1,8.1-18.1,18.1c0,4.4,1.6,8.7,4.6,12c3.4,3.7,3.1,9.4-0.6,12.8c-1.7,1.5-3.8,2.3-6.1,2.3H76
		C81.4,258,113.2,308.6,161.8,338z"/>
	<path class="st0" d="M436.9,174.2L436.9,174.2C431.5,82.1,358.3,8.5,266.3,2.6c-0.4,0-0.8,0-1.2,0v55.2c19.4-5,39.1,6.6,44.1,26
		c5,19.4-6.6,39.1-26,44.1c-5.9,1.5-12.2,1.5-18.1,0v55.4h70.3c5,0,9.1,4.1,9,9.1c0,2.2-0.8,4.4-2.3,6.1c-3,3.3-4.6,7.6-4.6,12
		c0,10,8.1,18.1,18.1,18.1c10,0,18.1-8.1,18.1-18.1c0-4.4-1.6-8.7-4.6-12c-3.4-3.7-3.1-9.4,0.6-12.8c1.7-1.5,3.8-2.3,6.1-2.3H437
		C437,180.3,437,177.3,436.9,174.2z"/>
	<path class="st0" d="M390.7,201.5c5,19.4-6.6,39.1-26,44.1c-19.4,5-39.1-6.6-44.1-26c-1.5-5.9-1.5-12.2,0-18.1h-55.5v70.3
		c0,5-4.1,9.1-9.1,9c-2.2,0-4.4-0.8-6.1-2.3c-3.3-3-7.6-4.6-12-4.6c-10,0-18.1,8.1-18.1,18.1c0,10,8.1,18.1,18.1,18.1
		c4.4,0,8.7-1.6,12-4.6c3.7-3.4,9.4-3.1,12.8,0.6c1.5,1.7,2.3,3.8,2.3,6.1v79.4h54.3c0.3-22.1,12.1-42.4,31-53.7
		c48.3-29.6,80-80.1,85.6-136.4H390.7z"/>
</g>
</svg>
