<svg xmlns="http://www.w3.org/2000/svg" viewBox="0 0 251.26 179.83"><defs><style>.cls-1,.cls-19,.cls-22,.cls-27,.cls-28,.cls-5,.cls-6,.cls-7,.cls-8{fill:none;}.cls-1,.cls-5,.cls-6,.cls-8{stroke:#d5b2b2;}.cls-1,.cls-28,.cls-5,.cls-6,.cls-7,.cls-8{stroke-miterlimit:10;}.cls-1{stroke-width:0.44px;}.cls-2{fill:#f6e5e0;}.cls-3{fill:#3c6be0;}.cls-4{fill:#df7246;}.cls-5{stroke-width:0.3px;}.cls-6{stroke-width:0.46px;}.cls-7{stroke:#fff;stroke-width:0.43px;}.cls-8{stroke-width:0.49px;}.cls-9{fill:#1f2326;}.cls-10{fill:#e3a6a9;}.cls-11{fill:#e1a4a7;}.cls-12{fill:#262127;}.cls-13{fill:#d46538;}.cls-14{fill:#d7a99f;}.cls-15{fill:#3359ab;}.cls-16{fill:#0b0006;}.cls-17{fill:#2c3336;}.cls-18{fill:#fff;}.cls-19,.cls-27{stroke:#af7079;}.cls-19,.cls-22,.cls-27{stroke-linecap:round;stroke-linejoin:round;}.cls-19{stroke-width:0.4px;}.cls-20{fill:#1c1927;}.cls-21{fill:#966150;}.cls-22{stroke:#7c473d;stroke-width:0.4px;}.cls-23{fill:#171618;}.cls-24{fill:#eac140;}.cls-25{fill:#dbaf37;}.cls-26{fill:#0d0d0d;}.cls-27{stroke-width:0.39px;}.cls-28{stroke:#262127;stroke-width:0.28px;}</style></defs><title>Asset 2</title><g id="Layer_2" data-name="Layer 2"><g id="OBJECTS"><rect class="cls-1" x="54.39" y="32.91" width="159.76" height="101.34" rx="3.65"/><rect class="cls-2" x="63.22" y="25.25" width="159.76" height="101.34" rx="3.65"/><circle class="cls-3" cx="75.86" cy="31.42" r="2.02"/><circle class="cls-4" cx="82.58" cy="31.42" r="2.02"/><circle class="cls-5" cx="89.31" cy="31.42" r="2.02"/><rect class="cls-6" x="148.09" y="82.91" width="51.93" height="30.38" rx="1.77"/><rect class="cls-6" x="75.96" y="47.12" width="54.93" height="65.18" rx="1.77"/><rect class="cls-7" x="85.46" y="56.68" width="32.66" height="30.88" rx="1.55"/><line class="cls-7" x1="85.46" y1="93.54" x2="117.28" y2="93.54"/><line class="cls-7" x1="85.46" y1="98.86" x2="101.79" y2="98.86"/><line class="cls-7" x1="85.46" y1="104.19" x2="109.25" y2="104.19"/><rect class="cls-7" x="149.29" y="36.64" width="37.33" height="37.11" rx="1.71"/><path class="cls-7" d="M178.7,62.76H156.59A1.72,1.72,0,0,1,154.87,61h0a1.72,1.72,0,0,1,1.72-1.72H178.7A1.72,1.72,0,0,1,180.42,61h0A1.72,1.72,0,0,1,178.7,62.76Z"/><path class="cls-7" d="M178.7,51.43H156.59a1.72,1.72,0,0,1-1.72-1.73h0A1.72,1.72,0,0,1,156.59,48H178.7a1.72,1.72,0,0,1,1.72,1.72h0A1.72,1.72,0,0,1,178.7,51.43Z"/><path class="cls-3" d="M164.34,49.7a2.9,2.9,0,1,1-2.89-2.89A2.89,2.89,0,0,1,164.34,49.7Z"/><ellipse class="cls-8" cx="10.31" cy="123.39" rx="3.16" ry="3.2"/><path class="cls-8" d="M251,85.82a2.3,2.3,0,1,1-2.3-2.34A2.31,2.31,0,0,1,251,85.82Z"/><rect class="cls-8" x="137.92" y="0.24" width="4.78" height="4.85"/><path d="M215.89,145.78H198.63a1.81,1.81,0,0,1-1.82-1.82h0a1.82,1.82,0,0,1,1.82-1.82h17.26a1.83,1.83,0,0,1,1.82,1.82h0A1.82,1.82,0,0,1,215.89,145.78Z"/><rect class="cls-9" x="215" y="155.88" width="2.1" height="23.16" transform="translate(48.59 383.51) rotate(-90)"/><path class="cls-9" d="M206.45,168.09a2,2,0,1,1-2.31-1.65A2,2,0,0,1,206.45,168.09Z"/><rect class="cls-9" x="214.92" y="144.59" width="2.27" height="23.08"/><path class="cls-9" d="M229.61,168.09a2,2,0,1,1-2.31-1.65A2,2,0,0,1,229.61,168.09Z"/><path class="cls-9" d="M227.76,145.78H207.4a2.11,2.11,0,0,1-2-2.71l9.73-33.53a2.08,2.08,0,0,1,2-1.52h20.37a2.11,2.11,0,0,1,2,2.72l-9.72,33.53A2.09,2.09,0,0,1,227.76,145.78Z"/><path class="cls-10" d="M225,145.78H207.22a2.1,2.1,0,0,1-2-2.71L215,109.54a2.09,2.09,0,0,1,2-1.52h17.74a2.11,2.11,0,0,1,2,2.72L227,144.27A2.09,2.09,0,0,1,225,145.78Z"/><path class="cls-9" d="M227.76,145.78H206.2a1.82,1.82,0,0,1-1.82-1.82h0a1.83,1.83,0,0,1,1.82-1.82h21.56a1.83,1.83,0,0,1,1.82,1.82h0A1.82,1.82,0,0,1,227.76,145.78Z"/><rect class="cls-11" x="194.6" y="153.37" width="5.66" height="7.65" transform="translate(-52.14 119.77) rotate(-30)"/><path class="cls-12" d="M201.34,158.3l-6.22,3.59-3.29,4.79a3.56,3.56,0,0,0-.09,3.71h0l12.44-7.18Z"/><path class="cls-12" d="M194.75,162.42l.31-2.71a1.9,1.9,0,0,1,3.14.83Z"/><path class="cls-13" d="M191.56,125.86s-15-.76-13.68,5,11,29,11,29l12.52-3.22L191.94,139l18.34-6.9Z"/><rect class="cls-11" x="187.94" y="157.98" width="5.66" height="7.65"/><path class="cls-12" d="M193.6,164.72h-7.18l-5.25,2.5a3.57,3.57,0,0,0-1.93,3.17H193.6Z"/><path class="cls-12" d="M185.84,165l1.61-2.19a1.91,1.91,0,0,1,2.31,2.29Z"/><path class="cls-4" d="M205.72,129.7l-17.53.27a3.94,3.94,0,0,0-3.55,2.25,11.23,11.23,0,0,0-.79,5c.18,6.49,2.09,22.62,2.09,22.62h10.52l-1.41-17.05,19.3-.23a10.39,10.39,0,0,0,9.34-5.85,7.63,7.63,0,0,0,.65-5Z"/><path class="cls-14" d="M187.42,125.81c0,1.83-1.24,2.11-3.07,2.11s-3.55-.27-3.56-2.1a3.32,3.32,0,0,1,6.63,0Z"/><path class="cls-14" d="M189.75,127.68h-3.83a1.84,1.84,0,0,1-1.83-1.82h0a1.83,1.83,0,0,1,1.82-1.82h3.83a1.83,1.83,0,0,1,1.82,1.82h0A1.82,1.82,0,0,1,189.75,127.68Z"/><path class="cls-15" d="M189.6,128.07l-1.28-6.27,14.77-3.45,2.86-16.2c.32-1.67,2.3-3.44,4-3.12h0a3.75,3.75,0,0,1,2.89,3.93L211,124.06a3.06,3.06,0,0,1-2.29,2.42Z"/><path class="cls-3" d="M222.36,98.82c3.92.17,5.64,4.23,5.76,7l-3.78,26c-16.31-.14-18.62-2-18.62-2V103.55c.19-2.52,1.35-4.89,4.22-5.12l5.86-.55Z"/><path class="cls-11" d="M210.9,98.34l4.21-.64,4.67.75s-.41,3.89-6.28,3.2a4.16,4.16,0,0,1-2.34-1A1.81,1.81,0,0,1,210.9,98.34Z"/><polygon class="cls-15" points="210.04 121.73 218.67 118.78 219.66 110.21 220.24 120.11 210.04 121.73"/><path class="cls-15" d="M225,126.9s-.42,2.94-.42,2.94-17.84,1.6-20.44-.17Z"/><path class="cls-14" d="M203.08,127.86c.13,1.83-1.09,2.19-2.92,2.31s-3.56,0-3.69-1.85a3.31,3.31,0,0,1,6.61-.46Z"/><path class="cls-14" d="M205.53,129.57l-3.82.27a1.83,1.83,0,0,1-1.94-1.69h0a1.82,1.82,0,0,1,1.69-1.94l3.82-.26a1.82,1.82,0,0,1,1.94,1.69h0A1.81,1.81,0,0,1,205.53,129.57Z"/><path class="cls-3" d="M205.41,130l-1.69-7.1,16.52-2.76-.82-14c-.67-3.12,2.2-5.85,4.42-5.48h0c2.12,0,3.87,1.6,4.28,4.79l1.14,19.18a3.07,3.07,0,0,1-2.13,2.56Z"/><path class="cls-16" d="M175.73,108.78l18.71,1.76a1.31,1.31,0,0,1,1.18,1.16l2,16.86a1.32,1.32,0,0,1-1.43,1.46l-19-1.8a1.3,1.3,0,0,1-1.18-1.17l-1.65-16.84A1.31,1.31,0,0,1,175.73,108.78Z"/><path class="cls-17" d="M174.65,108.68l18.71,1.76a1.31,1.31,0,0,1,1.18,1.15l2,16.87a1.32,1.32,0,0,1-1.43,1.46l-19-1.8a1.32,1.32,0,0,1-1.18-1.17l-1.65-16.84A1.31,1.31,0,0,1,174.65,108.68Z"/><path class="cls-16" d="M197.07,128.68l12.79,1.21a.69.69,0,0,1,.63.77h0a.71.71,0,0,1-.77.64l-13.56-1.23Z"/><path class="cls-18" d="M185.38,118.91a2,2,0,1,1-4.08-.39,2,2,0,0,1,4.08.39Z"/><path class="cls-16" d="M208.65,74.91a3.78,3.78,0,0,1,3.91,3.18,3.25,3.25,0,0,1,4.94,1.67c9.3-1,.58,12.66.58,12.66l-.71-5.27-.26-5.9a2.93,2.93,0,0,1-5.6.09,3.77,3.77,0,1,1-2.86-6.43Z"/><path class="cls-11" d="M218.61,88.29l-.19,10.11a3.4,3.4,0,0,1-3.25,3.33h0a3.4,3.4,0,0,1-3.57-3.34l-.15-8.49Z"/><path class="cls-16" d="M217.92,90.63s0,6.62-6.34,5.82l-.06-3Z"/><path class="cls-11" d="M212.72,94.88h.22a5.74,5.74,0,0,0,5.74-5.74V82.66a1.48,1.48,0,0,0-1.48-1.48h-7.55A2.66,2.66,0,0,0,207,83.82v5.31A5.75,5.75,0,0,0,212.72,94.88Z"/><path class="cls-16" d="M212.68,87.3a.47.47,0,1,0,.43-.5A.47.47,0,0,0,212.68,87.3Z"/><path class="cls-16" d="M208,87.3a.47.47,0,0,0,.5.43.48.48,0,0,0,.44-.5.47.47,0,0,0-.94.07Z"/><path class="cls-19" d="M209.89,87.74l-.16,1.12s.08.7,1.09.43"/><path class="cls-16" d="M214.38,85.48h-.08l-2.12-.08a.43.43,0,0,1,0-.85l2.12.08a.42.42,0,0,1,.41.44A.43.43,0,0,1,214.38,85.48Z"/><path class="cls-16" d="M208.91,85.41h-.08l-1.3,0a.41.41,0,0,1-.41-.44.42.42,0,0,1,.44-.41l1.3,0a.42.42,0,0,1,.41.44A.44.44,0,0,1,208.91,85.41Z"/><path class="cls-19" d="M209.12,90.61a3.85,3.85,0,0,0,3.3.07"/><path class="cls-16" d="M218.53,88.11s-3.29-.75-2.67-5.74l-8.33-.14.2-2,9.24.13a2.25,2.25,0,0,1,2.21,2.47Z"/><path class="cls-11" d="M217.37,88a1.85,1.85,0,1,0,1.85-1.84A1.85,1.85,0,0,0,217.37,88Z"/><path class="cls-20" d="M143.47,54c-1.89,1.89-4.64,2.21-6.14.7s-1.19-4.25.7-6.14,4.64-2.2,6.14-.7S145.36,52.11,143.47,54Z"/><path class="cls-4" d="M140.27,54.72a3,3,0,1,1-3-2.95A3,3,0,0,1,140.27,54.72Z"/><path class="cls-20" d="M124.53,59.57a8.63,8.63,0,0,0,8.6,8A8.48,8.48,0,0,0,141,59c-.17-4.35-3.78-8.22-8.72-7.35C128,52.44,124.36,55.22,124.53,59.57Z"/><path class="cls-21" d="M136.16,71.88l-.35-9.37-5.79.25.35,9.38a2.89,2.89,0,0,0,3,2.76h0A2.9,2.9,0,0,0,136.16,71.88Z"/><path class="cls-20" d="M136,62.93s-.33,6.94-5.69,7l-.14-3.46Z"/><path class="cls-21" d="M131.31,68.74h0c-3.1.12-5.71-1.65-5.84-4.75l-.21-5.33c-.09-2.28,2.31-4.79,3.66-4.85l5,1.2a2.46,2.46,0,0,1,2.55,2.35l.21,5.31A6.2,6.2,0,0,1,131.31,68.74Z"/><path class="cls-12" d="M130.65,61.37a.46.46,0,0,0,.5.4.45.45,0,1,0-.5-.4Z"/><path class="cls-12" d="M126.56,61.5a.46.46,0,0,0,.5.4.45.45,0,1,0-.5-.4Z"/><path class="cls-22" d="M128.33,62.09l-.07,1.28s.11.68,1.06.38"/><path class="cls-12" d="M132.24,60h-2.1a.41.41,0,0,1-.41-.41.41.41,0,0,1,.41-.4h2a.41.41,0,0,1,.41.41A.41.41,0,0,1,132.24,60Z"/><path class="cls-12" d="M127.37,60.06h-1.31a.41.41,0,0,1,0-.82h1.23a.41.41,0,0,1,.41.41A.42.42,0,0,1,127.37,60.06Z"/><path class="cls-18" d="M127.54,64.75h3.61A1.87,1.87,0,0,1,129,66,1.53,1.53,0,0,1,127.54,64.75Z"/><path class="cls-20" d="M134,58.16s.07,3.44,2,3.73L137.31,58Z"/><path class="cls-21" d="M139.16,61.76a2,2,0,1,1-2.1-1.94A2,2,0,0,1,139.16,61.76Z"/><path class="cls-20" d="M134,51.55s-10.51-.66-10.42,7H138L136,53.34Z"/><polygon class="cls-21" points="137.59 165.73 133.13 165.73 134.16 150.21 139.62 150.21 137.59 165.73"/><path class="cls-12" d="M132.85,164.75h7.33l5.16,2.46a3.49,3.49,0,0,1,1.9,3.11h0l-14.69-.18Z"/><path class="cls-12" d="M140.76,165l-1.59-2.15a1.88,1.88,0,0,0-2.27,2.25Z"/><path class="cls-12" d="M140.74,91.57s8.75,6.21,5.12,26.91l-5.12,35H133.1l.44-55.33-.44-6.56Z"/><polygon class="cls-21" points="110.85 165.73 115.31 165.73 119.77 150.21 114.31 150.21 110.85 165.73"/><path class="cls-12" d="M115.59,164.75h-7.33l-5.16,2.46a3.49,3.49,0,0,0-1.9,3.11h0l14.69-.18Z"/><path class="cls-12" d="M107.68,165l1.59-2.15a1.88,1.88,0,0,1,2.27,2.25Z"/><path class="cls-12" d="M126.8,91.63s-3.89,3.53-6.75,19S112,152.9,112,152.9l7.3.56L135,105.23,136,91.63Z"/><polygon class="cls-23" points="133.45 109.94 129.73 104.57 128.26 125.06 133.45 109.94"/><path class="cls-21" d="M115.67,83.06a6.61,6.61,0,0,0,1.09-.12l15.67-3.32c2.23-.33,5.5-3.6,4.55-5.64a3.39,3.39,0,0,0-4-1.84l-16,5.42Z"/><path class="cls-21" d="M117.67,77.88l-13.92-9.49-1.94,2.46,11.47,11.37c2,1.74,5.79.64,6.62-1.88h0C120.49,78.59,119.31,78.71,117.67,77.88Z"/><path class="cls-21" d="M103.71,69.44A3.15,3.15,0,1,1,102,65.31,3.15,3.15,0,0,1,103.71,69.44Z"/><path class="cls-21" d="M101.87,65.25l-2.74-2a.55.55,0,0,0-.75.05h0a.45.45,0,0,0,0,.63l2.53,2.67Z"/><path class="cls-24" d="M127.51,72.73a52,52,0,0,0-7.32,2.5l4.75,6.45,1.63-.41Z"/><path class="cls-25" d="M124.6,81.3a17.2,17.2,0,0,1,0-5.38l-2.44,2Z"/><path class="cls-21" d="M154.07,93.38l1.42-2.59-7.13-11.86c-.92-1.59-5.14-4.49-6.4-3.16-.93,1-1,4-.15,5.07l8.75,11.67Z"/><path class="cls-21" d="M150.69,93.1l4.13,16.51,3.15-.33-2-16.93a2.69,2.69,0,0,0-3.78-2.42h0A2.69,2.69,0,0,0,150.69,93.1Z"/><path class="cls-24" d="M139.57,72.45a14.7,14.7,0,0,1,8.68,5.09l-7.5,7s-4.84-4.44-1.61-8.65Z"/><path class="cls-21" d="M154.26,109.15a3.1,3.1,0,1,1-.52,4.36A3.1,3.1,0,0,1,154.26,109.15Z"/><path class="cls-24" d="M133.33,71.42s-3.48-.26-8.65,2.68c0,0-1,8.75,1.72,12l.4,5.55,13.94-.06s.78-9.9,3.65-12.4l-1-4.93A18.75,18.75,0,0,0,133.33,71.42Z"/><path class="cls-21" d="M127.5,72.75a15.36,15.36,0,0,1,12.07-.3l-2.33,1.46c-3,1.87-7.09,1.15-9.74-1.16Z"/><path class="cls-25" d="M142.27,83.15l-.45.42a12.41,12.41,0,0,1-3.14-3.24l2.21,9.8Z"/><path class="cls-11" d="M55.3,107.59a10.34,10.34,0,0,1,1.56,9.15c-1.71,5-6.46-.36-6.46-.36Z"/><path class="cls-25" d="M55.78,71.08S55.4,69.5,51.9,68l2.47,19.4.24-1.18-1.89,24.36,5.54-.32C59.43,80.87,55.78,71.08,55.78,71.08Z"/><path class="cls-24" d="M45.11,65.76s-6,.24-10.45,3l-.91,32.1H54.81V72.45c0-1.74-.47-3.21-1.1-3.52C52.3,68.22,48.55,66.09,45.11,65.76Z"/><polygon class="cls-25" points="34.22 84.11 37.24 79.91 37.24 88.51 34.22 87.91 34.22 84.11"/><path class="cls-25" d="M33.85,97.05s5.63,0,5.63,0v-1.3H40.7s5.89,1.32,7.87-4l-4.78-1.1L34,92.86Z"/><path class="cls-24" d="M41.45,74.17s-5.61,7.44-11.52,16.12a4.32,4.32,0,0,1-3.43,1.44h0c-2.65-.06-3.83-2.9-2.87-5.24,0,0,6.81-14.34,11-17.77C34.81,68.6,41.45,74.17,41.45,74.17Z"/><path class="cls-26" d="M47.79,84.12l-5.07,6.64a1.11,1.11,0,0,0,.67,1.76l4.09.79a1.11,1.11,0,0,0,1.09-.41l5.12-6.63A1.11,1.11,0,0,0,53,84.51l-4.14-.81A1.14,1.14,0,0,0,47.79,84.12Z"/><polygon class="cls-11" points="40.7 90.54 34.18 90.63 32.87 93.69 40.18 93.32 40.7 90.54"/><path class="cls-11" d="M40.7,90.54l4.28-3a.59.59,0,0,1,.71,0h0a.58.58,0,0,1,.06.78l-.94,1.15,3.23.35a.61.61,0,0,1,.47.87l-.49,1a3.18,3.18,0,0,1-2.2,1.72c-1.66.36-4.15.81-5.64-.09Z"/><path class="cls-24" d="M24.06,85.6s-2.48,4.15-.76,6.51,9.24,3.71,15.62,3.11l.26-6.33-7.46-1.48Z"/><path class="cls-11" d="M42.32,56.11l-.67,10.08a3.4,3.4,0,0,0,3,3.6h0a3.4,3.4,0,0,0,3.84-3l.87-8.44Z"/><path class="cls-12" d="M42.59,59.09s-1.71,7.21,5.89,7.24l.4-3.84Z"/><path class="cls-12" d="M45.15,47.34s-4.7.7-4.58,3.71.52,6.2.52,6.2l2.58-4.92Z"/><path class="cls-12" d="M53.58,50.25S57,55,52.07,57.06l-.82-.41S49.76,53,51.72,51Z"/><path class="cls-11" d="M47.19,64.63H47a5.77,5.77,0,0,1-5.48-6.06L41.83,52a1.49,1.49,0,0,1,1.57-1.42L51,51a2.67,2.67,0,0,1,2.53,2.81l-.27,5.34A5.78,5.78,0,0,1,47.19,64.63Z"/><path class="cls-9" d="M47.89,57.78a.47.47,0,0,1-.53.41.47.47,0,1,1,.53-.41Z"/><path class="cls-9" d="M51.92,58a.47.47,0,0,1-.94-.12.47.47,0,1,1,.94.12Z"/><path class="cls-27" d="M49.88,58.58l.06,1.33s-.12.71-1.12.38"/><path class="cls-9" d="M46.23,56.28h.09l2.14,0a.43.43,0,0,0,.43-.43.43.43,0,0,0-.42-.44l-2.14,0a.44.44,0,0,0-.44.43A.45.45,0,0,0,46.23,56.28Z"/><path class="cls-9" d="M51.09,56.43l.09,0h1.3a.42.42,0,0,0,.44-.42.43.43,0,0,0-.42-.44l-1.31,0a.44.44,0,0,0-.44.43A.42.42,0,0,0,51.09,56.43Z"/><path class="cls-27" d="M46.47,60.69a3.72,3.72,0,0,0,4.44.28"/><path class="cls-12" d="M41.43,57.92s3.84-1.78,3.62-7.9l-3.52-.45-.05.89Z"/><path class="cls-11" d="M43,57.34a1.95,1.95,0,1,1-1.85-2A1.94,1.94,0,0,1,43,57.34Z"/><path class="cls-12" d="M44.14,53.28l2.2-1.12s5.06,2.61,7.29.5c2.41-2.27,2.29-7.17-2.15-7.95-3.85-.67-7,1.88-7.54,4.2A8,8,0,0,0,44.14,53.28Z"/><polygon class="cls-3" points="33.75 100.82 33.8 107.81 54.78 107.81 54.81 100.82 33.75 100.82"/><rect class="cls-11" x="36.93" y="157.7" width="5.69" height="7.69"/><path class="cls-12" d="M42.62,164.47H35.41L30.13,167a3.57,3.57,0,0,0-1.94,3.18H42.62Z"/><path class="cls-12" d="M34.82,164.74l1.62-2.2a1.91,1.91,0,0,1,2.32,2.3Z"/><polygon class="cls-3" points="45.29 103.93 43.06 159.12 34.54 159.12 33.75 103.93 45.29 103.93"/><polygon class="cls-15" points="33.42 155.57 43.2 155.57 43.06 159.12 33.42 159.12 33.42 155.57"/><rect class="cls-11" x="47.66" y="157.7" width="5.69" height="7.69"/><path class="cls-12" d="M47.66,164.47h7.22L60.16,167a3.57,3.57,0,0,1,1.94,3.18H47.66Z"/><path class="cls-12" d="M55.47,164.74l-1.62-2.2a1.91,1.91,0,0,0-2.32,2.3Z"/><polygon class="cls-3" points="54.81 105.13 54.34 159.12 45.29 159.12 44.68 106 54.81 105.13"/><polygon class="cls-15" points="44.71 108.03 47.55 108.03 45.06 138.91 44.71 108.03"/><polygon class="cls-15" points="55.47 155.57 45.2 155.57 45.24 159.12 55.47 159.12 55.47 155.57"/><line class="cls-28" y1="170.42" x2="242.38" y2="170.42"/><line class="cls-28" x1="52.32" y1="179.69" x2="163.79" y2="179.69"/></g></g></svg>