<svg xmlns="http://www.w3.org/2000/svg" width="1920" height="569" viewBox="0 0 1920 569">
  <defs>
    <style>
      .cls-1 {
        fill: #f3f8ff;
        fill-rule: evenodd;
      }
    </style>
  </defs>
  <path id="testi_bg.svg" class="cls-1" d="M1920,7486q-959.91-.495-1920-1V7015c110.041-1.62,177.02,33.6,223,98,20.842,29.19,33.071,67.91,61,90,31.644,25.03,71.62,40.53,117,52,115.9,29.29,267.074,3.91,358-29,39.082-14.15,74.509-32.53,116-45,38.688-11.62,80.586-10.46,126-18q29,1.005,58,2c58.23,9.68,108.27,10.17,158,25,66.71,19.9,152.45,55.69,232,20,23.6-10.59,45.48-31.3,51-60,10.27-53.32-51.38-101.67,17-130,30.35-12.57,125.65-22.6,173-15,28.63,4.59,68.74,4.55,96-1,45.18-9.2,87.74-26.71,112-57q10.995-15,22-30v569Z" transform="translate(0 -6917)"/>
</svg>
